<svg width="24" height="25" viewBox="0 0 24 25" fill="none" xmlns="http://www.w3.org/2000/svg">
<path d="M9.101 24.7229V16.3799H6.627V12.546H9.101V10.8941C9.101 6.62324 10.949 4.64411 14.959 4.64411C15.36 4.64411 15.914 4.68802 16.427 4.7518C16.8112 4.79314 17.1924 4.86125 17.568 4.95567V8.43196C17.3509 8.41079 17.133 8.39823 16.915 8.39432C16.6707 8.38769 16.4264 8.38456 16.182 8.38491C15.475 8.38491 14.923 8.48528 14.507 8.70797C14.2273 8.85467 13.9922 9.07983 13.828 9.35827C13.57 9.79738 13.454 10.3985 13.454 11.19V12.546H17.373L16.987 14.7447L16.7 16.3799H13.454V25C19.396 24.2493 24 18.9601 24 12.546C24 5.61747 18.627 0 12 0C5.373 0 0 5.61747 0 12.546C0 18.4301 3.874 23.3669 9.101 24.7229Z" fill="#FFF5F8"/>
</svg>
