<svg width="23" height="24" viewBox="0 0 23 24" fill="none" xmlns="http://www.w3.org/2000/svg">
<path d="M16.8077 0H6.19231C2.77391 0.00381696 0.00365792 2.89451 0 6.46154V17.5385C0.00365792 21.1055 2.77391 23.9962 6.19231 24H16.8077C20.2261 23.9962 22.9963 21.1055 23 17.5385V6.46154C22.9963 2.89451 20.2261 0.00381696 16.8077 0ZM11.5 17.5385C7.41414 17.5387 4.86051 12.9234 6.90328 9.23098C8.94606 5.53858 14.0534 5.53834 16.0965 9.23056C16.5624 10.0726 16.8077 11.0277 16.8077 12C16.8046 15.0575 14.4301 17.5353 11.5 17.5385ZM18.1346 6.46154C17.1132 6.46159 16.4747 5.30777 16.9854 4.38467C17.4961 3.46157 18.773 3.46151 19.2837 4.38456C19.4002 4.59506 19.4615 4.83385 19.4615 5.07693C19.4615 5.8416 18.8674 6.46151 18.1346 6.46154ZM15.0385 12C15.0385 14.8423 12.0897 16.6188 9.73077 15.1976C7.3718 13.7765 7.3718 10.2235 9.73077 8.80237C10.2687 8.4783 10.8789 8.30769 11.5 8.30769C13.4542 8.30769 15.0385 9.96079 15.0385 12Z" fill="#FFF5F8"/>
</svg>
