<svg width="25" height="25" viewBox="0 0 25 25" fill="none" xmlns="http://www.w3.org/2000/svg">
<path fill-rule="evenodd" clip-rule="evenodd" d="M4.54545 0C3.33993 0 2.18377 0.478895 1.33133 1.33133C0.478895 2.18377 0 3.33993 0 4.54545V20.4545C0 21.6601 0.478895 22.8162 1.33133 23.6687C2.18377 24.5211 3.33993 25 4.54545 25H20.4545C21.6601 25 22.8162 24.5211 23.6687 23.6687C24.5211 22.8162 25 21.6601 25 20.4545V4.54545C25 3.33993 24.5211 2.18377 23.6687 1.33133C22.8162 0.478895 21.6601 0 20.4545 0H4.54545ZM3.97727 12.5C3.97727 11.2795 4.03409 10.1284 4.11023 9.1625C4.15875 8.46747 4.45694 7.81342 4.94981 7.32098C5.44268 6.82853 6.09697 6.53089 6.79205 6.48295C8.69197 6.35523 10.5958 6.29458 12.5 6.30114C14.9511 6.30114 16.8318 6.38523 18.208 6.48295C18.903 6.53089 19.5573 6.82853 20.0502 7.32098C20.5431 7.81342 20.8412 8.46747 20.8898 9.1625C20.9648 10.1284 21.0227 11.2795 21.0227 12.5C21.0227 13.7648 20.9614 14.9545 20.8818 15.9409C20.7682 17.3489 19.6955 18.4239 18.3114 18.5205C16.3768 18.6461 14.4386 18.7056 12.5 18.6989C10.025 18.6989 8.07955 18.617 6.68864 18.5205C5.30455 18.4239 4.23182 17.3489 4.11818 15.9409C4.02576 14.7963 3.97875 13.6484 3.97727 12.5ZM10.3818 9.60795L15.2114 12.5L10.3818 15.3932V9.60795Z" fill="#FFF5F8"/>
</svg>
